<?xml version="1.0" encoding="UTF-8"?>
<!DOCTYPE svg PUBLIC "-//W3C//DTD SVG 1.1//EN" "http://www.w3.org/Graphics/SVG/1.1/DTD/svg11.dtd">
<!-- Creator: CorelDRAW -->
<svg xmlns="http://www.w3.org/2000/svg" xml:space="preserve" width="5.4249mm" height="5.3658mm" version="1.1" style="shape-rendering:geometricPrecision; text-rendering:geometricPrecision; image-rendering:optimizeQuality; fill-rule:evenodd; clip-rule:evenodd"
viewBox="0 0 28.85 28.54"
 xmlns:xlink="http://www.w3.org/1999/xlink"
 xmlns:xodm="http://www.corel.com/coreldraw/odm/2003">
 <defs>
  <style type="text/css">
   <![CDATA[
    .fil0 {fill:#B66616;fill-rule:nonzero}
   ]]>
  </style>
 </defs>
 <g id="Camada_x0020_1">
  <metadata id="CorelCorpID_0Corel-Layer"/>
  <path class="fil0" d="M11.7 22.62c6.03,0 10.93,-4.89 10.93,-10.93 0,-3.02 -1.22,-5.75 -3.2,-7.73 -1.98,-1.98 -4.71,-3.2 -7.73,-3.2 -3.02,0 -5.75,1.22 -7.73,3.2 -1.98,1.98 -3.2,4.71 -3.2,7.73 0,3.02 1.22,5.75 3.2,7.73 1.98,1.98 4.71,3.2 7.73,3.2zm8.69 -3.1l8.46 8.46 -0.55 0.55 -8.45 -8.45c-2.11,2.05 -4.98,3.31 -8.16,3.31 -3.23,0 -6.16,-1.31 -8.27,-3.43 -2.12,-2.12 -3.43,-5.04 -3.43,-8.27 0,-3.23 1.31,-6.16 3.43,-8.27 2.12,-2.12 5.04,-3.43 8.27,-3.43 3.23,0 6.16,1.31 8.27,3.43 2.12,2.12 3.43,5.04 3.43,8.27 0,3.01 -1.14,5.76 -3.01,7.83z"/>
 </g>
</svg>
