<?xml version="1.0" encoding="UTF-8"?>
<!DOCTYPE svg PUBLIC "-//W3C//DTD SVG 1.1//EN" "http://www.w3.org/Graphics/SVG/1.1/DTD/svg11.dtd">
<!-- Creator: CorelDRAW -->
<svg xmlns="http://www.w3.org/2000/svg" xml:space="preserve" width="5.4261mm" height="5.3657mm" version="1.1" style="shape-rendering:geometricPrecision; text-rendering:geometricPrecision; image-rendering:optimizeQuality; fill-rule:evenodd; clip-rule:evenodd"
viewBox="0 0 542.6 536.56"
 xmlns:xlink="http://www.w3.org/1999/xlink"
 xmlns:xodm="http://www.corel.com/coreldraw/odm/2003">
 <defs>
  <style type="text/css">
   <![CDATA[
    .fil0 {fill:#C76A10;fill-rule:nonzero}
   ]]>
  </style>
 </defs>
 <g id="Camada_x0020_1">
  <metadata id="CorelCorpID_0Corel-Layer"/>
  <g id="_2173485395120">
   <path class="fil0" d="M220.15 425.39c113.37,0 205.48,-91.96 205.48,-205.48 0,-56.76 -22.97,-108.11 -60.13,-145.35 -37.24,-37.24 -88.51,-60.13 -145.35,-60.13 -56.76,0 -108.11,22.97 -145.35,60.13 -37.24,37.24 -60.13,88.51 -60.13,145.35 0,56.76 22.97,108.11 60.13,145.35 37.24,37.24 88.51,60.13 145.35,60.13zm163.39 -58.25l159.07 159.07 -10.35 10.35 -158.84 -158.84c-39.67,38.57 -93.61,62.25 -153.43,62.25 -60.76,0 -115.8,-24.62 -155.47,-64.52 -39.83,-39.83 -64.52,-94.78 -64.52,-155.47 0,-60.76 24.62,-115.8 64.52,-155.47 39.83,-39.83 94.78,-64.52 155.47,-64.52 60.76,0 115.8,24.62 155.47,64.52 39.83,39.83 64.52,94.78 64.52,155.47 0,56.6 -21.4,108.27 -56.6,147.23l0.16 0 0 -0.07z"/>
  </g>
 </g>
</svg>
