<?xml version="1.0" encoding="UTF-8"?>
<!DOCTYPE svg PUBLIC "-//W3C//DTD SVG 1.1//EN" "http://www.w3.org/Graphics/SVG/1.1/DTD/svg11.dtd">
<!-- Creator: CorelDRAW -->
<svg xmlns="http://www.w3.org/2000/svg" xml:space="preserve" width="5.426mm" height="5.3658mm" version="1.1" style="shape-rendering:geometricPrecision; text-rendering:geometricPrecision; image-rendering:optimizeQuality; fill-rule:evenodd; clip-rule:evenodd"
viewBox="0 0 69.21 68.44"
 xmlns:xlink="http://www.w3.org/1999/xlink"
 xmlns:xodm="http://www.corel.com/coreldraw/odm/2003">
 <defs>
  <style type="text/css">
   <![CDATA[
    .fil0 {fill:#3174BA;fill-rule:nonzero}
   ]]>
  </style>
 </defs>
 <g id="Camada_x0020_1">
  <metadata id="CorelCorpID_0Corel-Layer"/>
  <g id="_2173485395120">
   <path class="fil0" d="M28.08 54.27c14.46,0 26.21,-11.73 26.21,-26.21 0,-7.24 -2.93,-13.79 -7.67,-18.54 -4.75,-4.75 -11.29,-7.67 -18.54,-7.67 -7.24,0 -13.79,2.93 -18.54,7.67 -4.75,4.75 -7.67,11.29 -7.67,18.54 0,7.24 2.93,13.79 7.67,18.54 4.75,4.75 11.29,7.67 18.54,7.67zm20.84 -7.43l20.29 20.29 -1.32 1.32 -20.26 -20.26c-5.06,4.92 -11.94,7.94 -19.57,7.94 -7.75,0 -14.77,-3.14 -19.83,-8.23 -5.08,-5.08 -8.23,-12.09 -8.23,-19.83 0,-7.75 3.14,-14.77 8.23,-19.83 5.08,-5.08 12.09,-8.23 19.83,-8.23 7.75,0 14.77,3.14 19.83,8.23 5.08,5.08 8.23,12.09 8.23,19.83 0,7.22 -2.73,13.81 -7.22,18.78l0.02 0z"/>
  </g>
 </g>
</svg>
